<?xml version="1.0" standalone="no"?>
<!DOCTYPE svg PUBLIC "-//W3C//DTD SVG 20010904//EN"
 "http://www.w3.org/TR/2001/REC-SVG-20010904/DTD/svg10.dtd">
<svg version="1.0" xmlns="http://www.w3.org/2000/svg"
 width="512.000000pt" height="512.000000pt" viewBox="0 0 512.000000 512.000000"
 preserveAspectRatio="xMidYMid meet">

<g transform="translate(0.000000,512.000000) scale(0.100000,-0.100000)"
fill="#000000" stroke="none">
<path d="M687 4432 c-492 -492 -627 -632 -627 -652 0 -19 158 -183 742 -767
l743 -743 -536 -537 -537 -538 -20 -65 c-141 -441 -274 -880 -274 -898 -1 -30
24 -55 54 -54 18 0 457 133 898 274 l65 20 538 537 537 536 743 -743 c584
-584 748 -742 767 -742 36 0 1280 1243 1280 1280 0 19 -157 182 -742 767
l-743 743 631 632 c369 371 643 654 662 683 98 159 100 370 4 534 -33 57 -116
140 -173 173 -160 94 -364 94 -529 1 -27 -16 -294 -274 -683 -662 l-637 -636
-743 743 c-585 585 -748 742 -767 742 -20 0 -159 -134 -653 -628z m2003 -1017
l-75 -75 -715 715 -715 715 75 75 75 75 715 -715 715 -715 -75 -75z m1895
1385 c84 -32 183 -131 215 -215 31 -82 36 -165 16 -244 -22 -87 -44 -120 -155
-234 l-95 -98 -278 278 -278 278 93 93 c50 51 111 104 134 117 99 59 234 68
348 25z m-2502 -1992 l-453 -453 -117 117 -117 117 102 104 c107 110 118 131
82 167 -36 36 -57 25 -167 -82 l-104 -102 -101 101 -102 102 102 105 c107 110
117 131 82 166 -36 36 -57 25 -167 -82 l-103 -102 -105 104 -105 104 105 107
c58 58 105 113 105 123 0 23 -36 56 -62 56 -15 0 -57 -34 -125 -102 l-103
-103 -105 105 -105 104 105 107 c58 58 105 112 105 120 0 28 -31 59 -58 59
-20 0 -50 -24 -129 -102 l-103 -103 -120 120 -120 120 452 452 453 453 715
-715 715 -715 -452 -452z m2127 1397 l275 -275 -63 -62 -62 -63 -277 277 -278
278 60 60 c33 33 62 60 65 60 3 0 129 -124 280 -275z m-1707 -1617 l-1458
-1458 -117 117 -118 118 1457 1457 1458 1458 117 -117 118 -118 -1457 -1457z
m320 -320 l-1458 -1458 -117 117 -118 118 1457 1457 1458 1458 117 -117 118
-118 -1457 -1457z m1385 -221 l712 -712 -75 -75 -75 -75 -715 715 -715 715 72
72 c40 40 75 73 78 73 3 0 326 -321 718 -713z m-230 -230 l712 -712 -453 -453
-452 -452 -120 120 -120 120 103 103 c78 79 102 109 102 129 0 27 -31 58 -59
58 -8 0 -62 -47 -120 -105 l-107 -105 -104 105 -105 105 103 103 c78 79 102
109 102 129 0 28 -31 58 -60 58 -8 0 -62 -47 -120 -105 l-105 -105 -105 105
-104 105 102 103 c106 108 118 132 85 169 -33 36 -59 23 -169 -84 l-105 -102
-102 102 -101 101 102 104 c107 110 118 131 82 167 -36 36 -57 25 -167 -82
l-104 -102 -117 117 -117 117 450 450 c247 248 452 450 455 450 3 0 326 -321
718 -713z m-2968 -812 l275 -275 -63 -62 -62 -63 -277 277 -278 278 60 60 c33
33 62 60 65 60 3 0 129 -124 280 -275z m32 -456 c-5 -4 -378 -123 -679 -215
-31 -9 -41 -10 -38 -1 3 7 52 165 110 352 58 187 108 347 111 354 3 10 87 -67
254 -234 137 -137 246 -252 242 -256z"/>
</g>
</svg>
